<svg width="32" height="32" viewBox="0 0 32 32" fill="none" xmlns="http://www.w3.org/2000/svg">
  <rect width="32" height="32" rx="6" fill="#0f3d22"/>
  <path d="M16 4C9.373 4 4 9.373 4 16s5.373 12 12 12c4.37 0 8.21-2.34 10.32-5.84" stroke="#fefcf3" stroke-width="2.5" stroke-linecap="round"/>
  <path d="M16 8.5c-4.142 0-7.5 3.358-7.5 7.5s3.358 7.5 7.5 7.5c2.74 0 5.14-1.47 6.46-3.66" stroke="#fefcf3" stroke-width="1.8" stroke-linecap="round" opacity="0.7"/>
  <path d="M16 13c-1.657 0-3 1.343-3 3s1.343 3 3 3c.99 0 1.87-.48 2.42-1.22" stroke="#fefcf3" stroke-width="1.2" stroke-linecap="round" opacity="0.45"/>
  <circle cx="16" cy="16" r="1.5" fill="#fefcf3"/>
</svg>
